<svg width="256" height="256" viewBox="0 0 256 256" fill="none" xmlns="http://www.w3.org/2000/svg">
  <rect width="256" height="256" rx="48" fill="#15202B"/>
  
  <g opacity="0.70">
    <rect x="25" y="40" width="205" height="10" rx="5" fill="#7D8B9A"/>
    
    <line x1="20" y1="65" x2="30" y2="65" stroke="#FF3333" stroke-width="6" stroke-linecap="round"/>
    <rect x="40" y="60" width="160" height="10" rx="5" fill="#FF3333"/>
    
    <rect x="25" y="80" width="205" height="10" rx="5" fill="#7D8B9A"/>
    
    <line x1="25" y1="95" x2="25" y2="105" stroke="#00FF88" stroke-width="6" stroke-linecap="round"/>
    <line x1="20" y1="100" x2="30" y2="100" stroke="#00FF88" stroke-width="6" stroke-linecap="round"/>
    <rect x="40" y="95" width="190" height="10" rx="5" fill="#00FF88"/>

    <rect x="25" y="115" width="205" height="10" rx="5" fill="#7D8B9A"/>

    <line x1="20" y1="140" x2="30" y2="140" stroke="#FF3333" stroke-width="6" stroke-linecap="round"/>
    <rect x="40" y="135" width="130" height="10" rx="5" fill="#FF3333"/>

    <line x1="25" y1="155" x2="25" y2="165" stroke="#00FF88" stroke-width="6" stroke-linecap="round"/>
    <line x1="20" y1="160" x2="30" y2="160" stroke="#00FF88" stroke-width="6" stroke-linecap="round"/>
    <rect x="40" y="155" width="175" height="10" rx="5" fill="#00FF88"/>

    <rect x="25" y="175" width="205" height="10" rx="5" fill="#7D8B9A"/>
    
    <rect x="25" y="195" width="140" height="10" rx="5" fill="#7D8B9A"/>
  </g>
  
  <circle cx="128" cy="118" r="88" stroke="white" stroke-width="14" stroke-dasharray="24 12"/>
  <circle cx="128" cy="118" r="68" stroke="white" stroke-width="6" opacity="0.6"/>

  <line x1="192" y1="182" x2="225" y2="215" stroke="white" stroke-width="20" stroke-linecap="round"/>
</svg>